<svg width="285" height="82" viewBox="-1 -1 285 82" fill="none" role="img" aria-label="Zero" xmlns="http://www.w3.org/2000/svg">
<rect width="80" height="80" fill="black"></rect>
<path fill-rule="evenodd" clip-rule="evenodd" d="M43.5646 23.762L56.2379 23.762L56.2379 -0.000335693H43.5646C19.5046 -0.000330876 0.000145549 19.5041 0.000148704 43.564L0.000150366 56.2373H23.7626V43.564C23.7626 32.6277 32.6283 23.762 43.5646 23.762ZM36.4359 56.2374L23.7626 56.2374L23.7626 79.9998H36.4359C60.4959 79.9998 80.0003 60.4954 80.0003 36.4354V23.7622H56.2379V36.4354C56.2379 47.3718 47.3722 56.2374 36.4359 56.2374Z" fill="white"></path>
<path fill-rule="evenodd" clip-rule="evenodd" d="M259.829 69.8872C245.45 69.8872 237.089 59.7713 237.089 46.0606C237.089 31.5975 246.871 22.9865 259.829 22.9865C274.125 22.9865 282.485 33.0187 282.485 46.0606C282.485 61.0254 273.038 69.8872 259.829 69.8872ZM259.829 61.4434C267.771 61.4434 272.453 54.9224 272.453 46.0606C272.453 37.2824 267.521 31.4303 259.829 31.4303C252.138 31.4303 247.122 37.2824 247.122 46.0606C247.122 55.7584 252.556 61.4434 259.829 61.4434ZM207.998 68.6332H217.863V46.7295C217.863 38.3693 223.297 33.4368 232.493 33.4368H234.165V23.8226H232.493C225.136 23.8226 219.953 26.9995 217.111 33.0188L215.94 24.3242H207.998V68.6332ZM179.985 69.8872C166.442 69.8872 157.162 60.1893 157.162 46.6458C157.162 32.0155 166.776 22.9865 179.149 22.9865C191.69 22.9865 200.05 31.7647 200.301 46.1442V48.4851H167.027C167.696 56.2601 172.545 61.527 180.069 61.527C185.169 61.527 189.015 59.0189 190.519 54.588H200.134C197.876 64.1186 190.436 69.8872 179.985 69.8872ZM167.445 41.5461H190.101C188.847 35.1924 184.918 31.3467 179.149 31.3467C173.297 31.3467 168.95 35.1924 167.445 41.5461ZM106.967 68.6331H151.109V59.6041H118.755L150.273 19.3916V10.1118H108.472V19.1408H138.485L106.967 59.3533V68.6331Z" fill="black"></path>
</svg>